<?xml version="1.0" encoding="UTF-8"?>
<svg version="1.1" xmlns="http://www.w3.org/2000/svg" width="3000" height="2808" >
<path fill="#9e9e9e" d="M0 0 C85.11823726 -0.17134542 170.23649533 -0.330347 255.3548584 -0.4234314 C257.24365976 -0.42550225 257.24365976 -0.42550225 259.17061872 -0.42761494 C286.53455268 -0.45754202 313.89848848 -0.48524412 341.262427 -0.51065329 C354.00697152 -0.52249062 366.7515156 -0.53475762 379.49605942 -0.54732442 C381.51905611 -0.5493169 383.54205282 -0.55129809 385.56504952 -0.5532788 C416.71881054 -0.58388104 447.8725325 -0.62297362 479.02624512 -0.68664551 C479.69615058 -0.6880145 480.36605605 -0.68938348 481.05626169 -0.69079396 C491.85722003 -0.71291785 502.65817687 -0.73575387 513.45913353 -0.7586844 C558.62298914 -0.85455191 603.78679313 -0.91853519 648.95075383 -0.9391499 C655.23059205 -0.94203157 661.51043003 -0.94528794 667.79026794 -0.94877243 C669.02626509 -0.94944666 670.26226224 -0.95012089 671.53571384 -0.95081555 C691.45498337 -0.96264599 711.37403033 -1.00906205 731.29320899 -1.06832034 C751.3047794 -1.12711871 771.31612852 -1.1496985 791.32778233 -1.13501377 C803.22629833 -1.12739127 815.12400622 -1.14783197 827.02237672 -1.20797543 C834.9637573 -1.24538495 842.90460677 -1.24670086 850.84602356 -1.21831814 C855.37568726 -1.20317281 859.90381957 -1.20405207 864.43332106 -1.24883182 C868.55322327 -1.28925383 872.67039752 -1.2837585 876.79025696 -1.24139976 C878.27236207 -1.23424833 879.75466659 -1.24392547 881.23651631 -1.27235245 C892.23879389 -1.47005724 892.23879389 -1.47005724 896.58047122 2.15388782 C898.62981777 4.67991284 900.32752215 7.21423581 902 10 C903.07944936 11.47541362 904.17090335 12.94222736 905.28125 14.39453125 C906.35575888 15.86602616 907.42862652 17.33872069 908.5 18.8125 C913.58951898 25.76891678 918.75965772 32.65654335 924 39.5 C929.6537122 46.88627957 935.2147046 54.33194829 940.7109375 61.8359375 C945.07277132 67.77671569 949.5206034 73.64748697 954 79.5 C959.74371634 87.0056476 965.40205903 94.56687643 970.9921875 102.1875 C974.63153609 107.14798198 978.29976679 112.08478317 982 117 C986.29082202 122.69972739 990.53023888 128.43500053 994.75 134.1875 C1000.42318222 141.91563489 1006.21139146 149.55002954 1012.03808594 157.1628418 C1017.00622353 163.66539815 1021.87562263 170.23429756 1026.7109375 176.8359375 C1031.07277163 182.77671612 1035.52062409 188.64747089 1040 194.5 C1045.67230923 201.91282362 1051.26147242 209.37928057 1056.78125 216.90625 C1060.98326094 222.63280006 1065.23040368 228.32368983 1069.5 234 C1074.35209548 240.45072667 1079.16411515 246.92833884 1083.9375 253.4375 C1089.5476984 261.08314453 1095.2752143 268.63338082 1101.03881836 276.16381836 C1106.00673002 282.66603498 1110.87586332 289.23462618 1115.7109375 295.8359375 C1120.07277163 301.77671612 1124.52062409 307.64747089 1129 313.5 C1134.67230923 320.91282362 1140.26147242 328.37928057 1145.78125 335.90625 C1149.98326094 341.63280006 1154.23040368 347.32368983 1158.5 353 C1163.35209548 359.45072667 1168.16411515 365.92833884 1172.9375 372.4375 C1178.5476984 380.08314453 1184.2752143 387.63338082 1190.03881836 395.16381836 C1195.00673002 401.66603498 1199.87586332 408.23462618 1204.7109375 414.8359375 C1209.07277163 420.77671612 1213.52062409 426.64747089 1218 432.5 C1223.67230923 439.91282362 1229.26147242 447.37928057 1234.78125 454.90625 C1238.98326094 460.63280006 1243.23040368 466.32368983 1247.5 472 C1252.35209548 478.45072667 1257.16411515 484.92833884 1261.9375 491.4375 C1267.5476984 499.08314453 1273.2752143 506.63338082 1279.03881836 514.16381836 C1284.00673002 520.66603498 1288.87586332 527.23462618 1293.7109375 533.8359375 C1298.07277132 539.77671569 1302.5206034 545.64748697 1307 551.5 C1312.74371634 559.0056476 1318.40205903 566.56687643 1323.9921875 574.1875 C1327.63153609 579.14798198 1331.29976679 584.08478317 1335 589 C1339.29082202 594.69972739 1343.53023888 600.43500053 1347.75 606.1875 C1353.42318222 613.91563489 1359.21139146 621.55002954 1365.03808594 629.1628418 C1370.00622353 635.66539815 1374.87562263 642.23429756 1379.7109375 648.8359375 C1384.07277163 654.77671612 1388.52062409 660.64747089 1393 666.5 C1398.67230923 673.91282362 1404.26147242 681.37928057 1409.78125 688.90625 C1413.98326094 694.63280006 1418.23040368 700.32368983 1422.5 706 C1427.35209548 712.45072667 1432.16411515 718.92833884 1436.9375 725.4375 C1442.5476984 733.08314453 1448.2752143 740.63338082 1454.03881836 748.16381836 C1459.00673002 754.66603498 1463.87586332 761.23462618 1468.7109375 767.8359375 C1473.07277163 773.77671612 1477.52062409 779.64747089 1482 785.5 C1487.67230923 792.91282362 1493.26147242 800.37928057 1498.78125 807.90625 C1502.98326094 813.63280006 1507.23040368 819.32368983 1511.5 825 C1516.35209548 831.45072667 1521.16411515 837.92833884 1525.9375 844.4375 C1531.5476984 852.08314453 1537.2752143 859.63338082 1543.03881836 867.16381836 C1548.00673002 873.66603498 1552.87586332 880.23462618 1557.7109375 886.8359375 C1562.07277132 892.77671569 1566.5206034 898.64748697 1571 904.5 C1576.74371634 912.0056476 1582.40205903 919.56687643 1587.9921875 927.1875 C1591.63153609 932.14798198 1595.29976679 937.08478317 1599 942 C1603.29082202 947.69972739 1607.53023888 953.43500053 1611.75 959.1875 C1617.41414468 966.90332376 1623.19022834 974.5278781 1629.01171875 982.12548828 C1634.26795424 988.99932256 1639.4138424 995.94898477 1644.484375 1002.9609375 C1647.11829267 1006.57624276 1649.6836354 1009.9653654 1653 1013 C1661.907905 1003.56299675 1670.79029839 994.10524089 1679.57324219 984.55175781 C1682.00472086 981.90725432 1684.43934734 979.2656591 1686.875 976.625 C1687.60916138 975.82896362 1687.60916138 975.82896362 1688.3581543 975.0168457 C1692.83838599 970.16453313 1697.34848681 965.34036543 1701.85888672 960.51611328 C1706.32284221 955.73691018 1710.7442573 950.92098907 1715.15625 946.09375 C1718.41364794 942.54022497 1721.70707554 939.02057466 1725 935.5 C1730.13247534 930.01193233 1735.22974271 924.49404776 1740.30078125 918.94921875 C1748.10293432 910.424435 1755.966465 901.95777992 1763.85864258 893.51635742 C1768.32269837 888.73709041 1772.74417969 883.92107399 1777.15625 879.09375 C1781.00997055 874.88969122 1784.91281644 870.73143815 1788.80859375 866.56640625 C1792.39387131 862.7300808 1795.95752254 858.8758871 1799.5 855 C1804.23331851 849.82119269 1809.01594724 844.69029399 1813.80859375 839.56640625 C1817.39387131 835.7300808 1820.95752254 831.8758871 1824.5 828 C1828.63791184 823.47263764 1832.81024595 818.97940488 1837 814.5 C1842.13247534 809.01193233 1847.22974271 803.49404776 1852.30078125 797.94921875 C1860.10293432 789.424435 1867.966465 780.95777992 1875.85864258 772.51635742 C1880.32269837 767.73709041 1884.74417969 762.92107399 1889.15625 758.09375 C1893.00997055 753.88969122 1896.91281644 749.73143815 1900.80859375 745.56640625 C1904.39387131 741.7300808 1907.95752254 737.8758871 1911.5 734 C1915.63791184 729.47263764 1919.81024595 724.97940488 1924 720.5 C1929.13247534 715.01193233 1934.22974271 709.49404776 1939.30078125 703.94921875 C1947.10293432 695.424435 1954.966465 686.95777992 1962.85864258 678.51635742 C1967.32269837 673.73709041 1971.74417969 668.92107399 1976.15625 664.09375 C1980.00997055 659.88969122 1983.91281644 655.73143815 1987.80859375 651.56640625 C1991.39387131 647.7300808 1994.95752254 643.8758871 1998.5 640 C2003.23331851 634.82119269 2008.01594724 629.69029399 2012.80859375 624.56640625 C2016.39387131 620.7300808 2019.95752254 616.8758871 2023.5 613 C2027.63791184 608.47263764 2031.81024595 603.97940488 2036 599.5 C2041.13247534 594.01193233 2046.22974271 588.49404776 2051.30078125 582.94921875 C2059.10293432 574.424435 2066.966465 565.95777992 2074.85864258 557.51635742 C2079.32269837 552.73709041 2083.74417969 547.92107399 2088.15625 543.09375 C2092.00997055 538.88969122 2095.91281644 534.73143815 2099.80859375 530.56640625 C2103.39387131 526.7300808 2106.95752254 522.8758871 2110.5 519 C2115.23331851 513.82119269 2120.01594724 508.69029399 2124.80859375 503.56640625 C2128.39387131 499.7300808 2131.95752254 495.8758871 2135.5 492 C2139.63791184 487.47263764 2143.81024595 482.97940488 2148 478.5 C2153.13247534 473.01193233 2158.22974271 467.49404776 2163.30078125 461.94921875 C2171.10293432 453.424435 2178.966465 444.95777992 2186.85864258 436.51635742 C2191.32269837 431.73709041 2195.74417969 426.92107399 2200.15625 422.09375 C2204.00997055 417.88969122 2207.91281644 413.73143815 2211.80859375 409.56640625 C2215.39387131 405.7300808 2218.95752254 401.8758871 2222.5 398 C2227.23331851 392.82119269 2232.01594724 387.69029399 2236.80859375 382.56640625 C2240.39387131 378.7300808 2243.95752254 374.8758871 2247.5 371 C2251.63791184 366.47263764 2255.81024595 361.97940488 2260 357.5 C2265.13247534 352.01193233 2270.22974271 346.49404776 2275.30078125 340.94921875 C2283.10293432 332.424435 2290.966465 323.95777992 2298.85864258 315.51635742 C2303.32269837 310.73709041 2307.74417969 305.92107399 2312.15625 301.09375 C2316.00997055 296.88969122 2319.91281644 292.73143815 2323.80859375 288.56640625 C2327.39387131 284.7300808 2330.95752254 280.8758871 2334.5 277 C2339.23331851 271.82119269 2344.01594724 266.69029399 2348.80859375 261.56640625 C2352.39387131 257.7300808 2355.95752254 253.8758871 2359.5 250 C2363.63791184 245.47263764 2367.81024595 240.97940488 2372 236.5 C2377.13247534 231.01193233 2382.22974271 225.49404776 2387.30078125 219.94921875 C2395.10293432 211.424435 2402.966465 202.95777992 2410.85864258 194.51635742 C2415.32269837 189.73709041 2419.74417969 184.92107399 2424.15625 180.09375 C2428.00997055 175.88969122 2431.91281644 171.73143815 2435.80859375 167.56640625 C2439.39387131 163.7300808 2442.95752254 159.8758871 2446.5 156 C2451.23331851 150.82119269 2456.01594724 145.69029399 2460.80859375 140.56640625 C2464.39387131 136.7300808 2467.95752254 132.8758871 2471.5 129 C2475.63791184 124.47263764 2479.81024595 119.97940488 2484 115.5 C2489.13247534 110.01193233 2494.22974271 104.49404776 2499.30078125 98.94921875 C2507.10293432 90.424435 2514.966465 81.95777992 2522.85864258 73.51635742 C2527.32269837 68.73709041 2531.74417969 63.92107399 2536.15625 59.09375 C2540.00997055 54.88969122 2543.91281644 50.73143815 2547.80859375 46.56640625 C2551.39387131 42.7300808 2554.95752254 38.8758871 2558.5 35 C2563.22457477 29.83075937 2567.9979293 24.70892571 2572.78222656 19.5949707 C2577.52014435 14.52602795 2582.21440236 9.41882818 2586.890625 4.29296875 C2590.8184979 0.02322543 2590.8184979 0.02322543 2592.94117272 -0.24839699 C2594.14298756 -0.24725783 2594.14298756 -0.24725783 2595.3690815 -0.24609566 C2596.29268003 -0.25007775 2597.21627856 -0.25405985 2598.16786492 -0.25816262 C2599.69994192 -0.24942409 2599.69994192 -0.24942409 2601.26296997 -0.24050903 C2602.34273664 -0.24221788 2603.42250332 -0.24392673 2604.53499019 -0.24568737 C2608.17720149 -0.24899907 2611.81923126 -0.23795093 2615.46142578 -0.22705078 C2618.06267289 -0.22648703 2620.66392031 -0.22680252 2623.26516724 -0.22793579 C2628.87785876 -0.22898602 2634.49050389 -0.22269505 2640.10318375 -0.21146011 C2648.21823415 -0.19522672 2656.33326205 -0.18999933 2664.44832693 -0.18748413 C2677.61351323 -0.18310363 2690.77867479 -0.1697849 2703.94384766 -0.15087891 C2716.73486202 -0.13252929 2729.52586967 -0.1183683 2742.31689453 -0.10986328 C2743.49895661 -0.10907511 2743.49895661 -0.10907511 2744.70489873 -0.10827102 C2748.65815223 -0.105661 2752.61140578 -0.10313357 2756.56465936 -0.10064721 C2789.37645759 -0.07990365 2822.18822549 -0.04466846 2855 0 C2854.03883378 1.12167372 2853.07762329 2.24330949 2852.11639404 3.3649292 C2851.58112469 3.98954418 2851.04585533 4.61415916 2850.49436569 5.25770187 C2845.3800086 11.22058955 2840.14688647 17.04160493 2834.75 22.75 C2829.39125616 28.44106904 2824.07970121 34.16903448 2818.80859375 39.94140625 C2815.56443698 43.48462825 2812.28178925 46.99166685 2809 50.5 C2804.81018786 54.97934971 2800.63791109 59.47263845 2796.5 64 C2791.76668149 69.17880731 2786.98405276 74.30970601 2782.19140625 79.43359375 C2778.60612869 83.2699192 2775.04247746 87.1241129 2771.5 91 C2766.76668149 96.17880731 2761.98405276 101.30970601 2757.19140625 106.43359375 C2753.60612869 110.2699192 2750.04247746 114.1241129 2746.5 118 C2742.36208816 122.52736236 2738.18975405 127.02059512 2734 131.5 C2728.86752466 136.98806767 2723.77025729 142.50595224 2718.69921875 148.05078125 C2710.89706568 156.575565 2703.033535 165.04222008 2695.14135742 173.48364258 C2690.67730163 178.26290959 2686.25582031 183.07892601 2681.84375 187.90625 C2677.99002945 192.11030878 2674.08718356 196.26856185 2670.19140625 200.43359375 C2666.60612869 204.2699192 2663.04247746 208.1241129 2659.5 212 C2654.76668149 217.17880731 2649.98405276 222.30970601 2645.19140625 227.43359375 C2641.60612869 231.2699192 2638.04247746 235.1241129 2634.5 239 C2629.76668149 244.17880731 2624.98405276 249.30970601 2620.19140625 254.43359375 C2616.60612869 258.2699192 2613.04247746 262.1241129 2609.5 266 C2605.36208816 270.52736236 2601.18975405 275.02059512 2597 279.5 C2591.86752466 284.98806767 2586.77025729 290.50595224 2581.69921875 296.05078125 C2573.89706568 304.575565 2566.033535 313.04222008 2558.14135742 321.48364258 C2553.67730163 326.26290959 2549.25582031 331.07892601 2544.84375 335.90625 C2540.99002945 340.11030878 2537.08718356 344.26856185 2533.19140625 348.43359375 C2529.60612869 352.2699192 2526.04247746 356.1241129 2522.5 360 C2517.76668149 365.17880731 2512.98405276 370.30970601 2508.19140625 375.43359375 C2504.60612869 379.2699192 2501.04247746 383.1241129 2497.5 387 C2493.36208816 391.52736236 2489.18975405 396.02059512 2485 400.5 C2479.86752466 405.98806767 2474.77025729 411.50595224 2469.69921875 417.05078125 C2461.89706568 425.575565 2454.033535 434.04222008 2446.14135742 442.48364258 C2441.67730163 447.26290959 2437.25582031 452.07892601 2432.84375 456.90625 C2428.99002945 461.11030878 2425.08718356 465.26856185 2421.19140625 469.43359375 C2417.60612869 473.2699192 2414.04247746 477.1241129 2410.5 481 C2405.76668149 486.17880731 2400.98405276 491.30970601 2396.19140625 496.43359375 C2392.60612869 500.2699192 2389.04247746 504.1241129 2385.5 508 C2381.36208816 512.52736236 2377.18975405 517.02059512 2373 521.5 C2367.86752466 526.98806767 2362.77025729 532.50595224 2357.69921875 538.05078125 C2349.89706568 546.575565 2342.033535 555.04222008 2334.14135742 563.48364258 C2329.67730163 568.26290959 2325.25582031 573.07892601 2320.84375 577.90625 C2316.99002945 582.11030878 2313.08718356 586.26856185 2309.19140625 590.43359375 C2305.60612869 594.2699192 2302.04247746 598.1241129 2298.5 602 C2293.76668149 607.17880731 2288.98405276 612.30970601 2284.19140625 617.43359375 C2280.60612869 621.2699192 2277.04247746 625.1241129 2273.5 629 C2268.76668149 634.17880731 2263.98405276 639.30970601 2259.19140625 644.43359375 C2255.60612869 648.2699192 2252.04247746 652.1241129 2248.5 656 C2244.36208816 660.52736236 2240.18975405 665.02059512 2236 669.5 C2230.86752466 674.98806767 2225.77025729 680.50595224 2220.69921875 686.05078125 C2212.89706568 694.575565 2205.033535 703.04222008 2197.14135742 711.48364258 C2192.67730163 716.26290959 2188.25582031 721.07892601 2183.84375 725.90625 C2179.99002945 730.11030878 2176.08718356 734.26856185 2172.19140625 738.43359375 C2168.60612869 742.2699192 2165.04247746 746.1241129 2161.5 750 C2156.76668149 755.17880731 2151.98405276 760.30970601 2147.19140625 765.43359375 C2143.60612869 769.2699192 2140.04247746 773.1241129 2136.5 777 C2132.36208816 781.52736236 2128.18975405 786.02059512 2124 790.5 C2118.86752466 795.98806767 2113.77025729 801.50595224 2108.69921875 807.05078125 C2100.89706568 815.575565 2093.033535 824.04222008 2085.14135742 832.48364258 C2080.67730163 837.26290959 2076.25582031 842.07892601 2071.84375 846.90625 C2067.99002945 851.11030878 2064.08718356 855.26856185 2060.19140625 859.43359375 C2056.60612869 863.2699192 2053.04247746 867.1241129 2049.5 871 C2044.76668149 876.17880731 2039.98405276 881.30970601 2035.19140625 886.43359375 C2031.60612869 890.2699192 2028.04247746 894.1241129 2024.5 898 C2019.76668149 903.17880731 2014.98405276 908.30970601 2010.19140625 913.43359375 C2006.60612869 917.2699192 2003.04247746 921.1241129 1999.5 925 C1995.36208816 929.52736236 1991.18975405 934.02059512 1987 938.5 C1981.86752466 943.98806767 1976.77025729 949.50595224 1971.69921875 955.05078125 C1963.89706568 963.575565 1956.033535 972.04222008 1948.14135742 980.48364258 C1943.67730163 985.26290959 1939.25582031 990.07892601 1934.84375 994.90625 C1930.99002945 999.11030878 1927.08718356 1003.26856185 1923.19140625 1007.43359375 C1919.60612869 1011.2699192 1916.04247746 1015.1241129 1912.5 1019 C1907.76668149 1024.17880731 1902.98405276 1029.30970601 1898.19140625 1034.43359375 C1894.60612869 1038.2699192 1891.04247746 1042.1241129 1887.5 1046 C1883.36208816 1050.52736236 1879.18975405 1055.02059512 1875 1059.5 C1869.86752466 1064.98806767 1864.77025729 1070.50595224 1859.69921875 1076.05078125 C1851.89706568 1084.575565 1844.033535 1093.04222008 1836.14135742 1101.48364258 C1831.67730163 1106.26290959 1827.25582031 1111.07892601 1822.84375 1115.90625 C1818.99002945 1120.11030878 1815.08718356 1124.26856185 1811.19140625 1128.43359375 C1806.71240559 1133.22622246 1802.27649508 1138.05581217 1797.8515625 1142.8984375 C1794.55198317 1146.49819178 1791.21218052 1150.06014268 1787.875 1153.625 C1782.51226582 1159.35493474 1777.21588047 1165.13558413 1772 1171 C1773.63725685 1176.22264211 1776.8785939 1180.18448205 1780.125 1184.5 C1780.74246094 1185.32951172 1781.35992188 1186.15902344 1781.99609375 1187.01367188 C1787.28835176 1194.10360069 1792.65905355 1201.13409061 1798.03564453 1208.16015625 C1803.00512032 1214.66321395 1807.87491056 1221.23332537 1812.7109375 1227.8359375 C1817.07277032 1233.77671433 1821.52054548 1239.6475326 1826 1245.5 C1831.65067561 1252.88268346 1837.21023936 1260.32359573 1842.70214844 1267.82495117 C1847.14481102 1273.87779513 1851.68378637 1279.85247959 1856.25 1285.8125 C1860.99569878 1292.00877085 1865.65458099 1298.24064107 1870.14257812 1304.62548828 C1874.54319952 1310.84399405 1879.20347725 1316.86366787 1883.8359375 1322.91015625 C1888.28724225 1328.72852838 1892.6724824 1334.58907773 1897 1340.5 C1901.92549154 1347.22508218 1906.93348707 1353.88053292 1912 1360.5 C1917.65067561 1367.88268346 1923.21023936 1375.32359573 1928.70214844 1382.82495117 C1933.14481102 1388.87779513 1937.68378637 1394.85247959 1942.25 1400.8125 C1946.99569878 1407.00877085 1951.65458099 1413.24064107 1956.14257812 1419.62548828 C1960.54319952 1425.84399405 1965.20347725 1431.86366787 1969.8359375 1437.91015625 C1974.28724225 1443.72852838 1978.6724824 1449.58907773 1983 1455.5 C1987.92549154 1462.22508218 1992.93348707 1468.88053292 1998 1475.5 C2003.65290465 1482.88559574 2009.21433838 1490.32967004 2014.70874023 1497.83374023 C2019.08782606 1503.79958611 2023.56077261 1509.68881759 2028.0625 1515.5625 C2033.52195656 1522.6889662 2038.84714321 1529.89191237 2044.06884766 1537.19384766 C2048.90970043 1543.93598658 2053.93963711 1550.52600271 2058.98828125 1557.11328125 C2063.3894518 1562.8634696 2067.72220925 1568.65753654 2072 1574.5 C2076.92552389 1581.22505881 2081.93348655 1587.88053224 2087 1594.5 C2092.65290465 1601.88559574 2098.21433838 1609.32967004 2103.70874023 1616.83374023 C2108.08782606 1622.79958611 2112.56077261 1628.68881759 2117.0625 1634.5625 C2122.52195656 1641.6889662 2127.84714321 1648.89191237 2133.06884766 1656.19384766 C2137.90970043 1662.93598658 2142.93963711 1669.52600271 2147.98828125 1676.11328125 C2152.3894518 1681.8634696 2156.72220925 1687.65753654 2161 1693.5 C2165.92552389 1700.22505881 2170.93348655 1706.88053224 2176 1713.5 C2181.65290465 1720.88559574 2187.21433838 1728.32967004 2192.70874023 1735.83374023 C2197.08782606 1741.79958611 2201.56077261 1747.68881759 2206.0625 1753.5625 C2211.52195656 1760.6889662 2216.84714321 1767.89191237 2222.06884766 1775.19384766 C2226.90970043 1781.93598658 2231.93963711 1788.52600271 2236.98828125 1795.11328125 C2241.3894518 1800.8634696 2245.72220925 1806.65753654 2250 1812.5 C2254.92552389 1819.22505881 2259.93348655 1825.88053224 2265 1832.5 C2270.65290465 1839.88559574 2276.21433838 1847.32967004 2281.70874023 1854.83374023 C2286.08782606 1860.79958611 2290.56077261 1866.68881759 2295.0625 1872.5625 C2300.52195656 1879.6889662 2305.84714321 1886.89191237 2311.06884766 1894.19384766 C2315.90970043 1900.93598658 2320.93963711 1907.52600271 2325.98828125 1914.11328125 C2330.3894518 1919.8634696 2334.72220925 1925.65753654 2339 1931.5 C2343.92552389 1938.22505881 2348.93348655 1944.88053224 2354 1951.5 C2359.65290465 1958.88559574 2365.21433838 1966.32967004 2370.70874023 1973.83374023 C2375.08782606 1979.79958611 2379.56077261 1985.68881759 2384.0625 1991.5625 C2389.52195656 1998.6889662 2394.84714321 2005.89191237 2400.06884766 2013.19384766 C2404.90970043 2019.93598658 2409.93963711 2026.52600271 2414.98828125 2033.11328125 C2419.3894518 2038.8634696 2423.72220925 2044.65753654 2428 2050.5 C2432.92552389 2057.22505881 2437.93348655 2063.88053224 2443 2070.5 C2448.65290465 2077.88559574 2454.21433838 2085.32967004 2459.70874023 2092.83374023 C2464.08782606 2098.79958611 2468.56077261 2104.68881759 2473.0625 2110.5625 C2478.52195656 2117.6889662 2483.84714321 2124.89191237 2489.06884766 2132.19384766 C2493.90970043 2138.93598658 2498.93963711 2145.52600271 2503.98828125 2152.11328125 C2508.3894518 2157.8634696 2512.72220925 2163.65753654 2517 2169.5 C2521.92552389 2176.22505881 2526.93348655 2182.88053224 2532 2189.5 C2537.65290465 2196.88559574 2543.21433838 2204.32967004 2548.70874023 2211.83374023 C2553.08782606 2217.79958611 2557.56077261 2223.68881759 2562.0625 2229.5625 C2567.52195656 2236.6889662 2572.84714321 2243.89191237 2578.06884766 2251.19384766 C2582.90970043 2257.93598658 2587.93963711 2264.52600271 2592.98828125 2271.11328125 C2597.3894518 2276.8634696 2601.72220925 2282.65753654 2606 2288.5 C2610.92552389 2295.22505881 2615.93348655 2301.88053224 2621 2308.5 C2626.65290465 2315.88559574 2632.21433838 2323.32967004 2637.70874023 2330.83374023 C2642.08782606 2336.79958611 2646.56077261 2342.68881759 2651.0625 2348.5625 C2656.52195656 2355.6889662 2661.84714321 2362.89191237 2667.06884766 2370.19384766 C2671.90970043 2376.93598658 2676.93963711 2383.52600271 2681.98828125 2390.11328125 C2686.3894518 2395.8634696 2690.72220925 2401.65753654 2695 2407.5 C2699.92552389 2414.22505881 2704.93348655 2420.88053224 2710 2427.5 C2715.65290465 2434.88559574 2721.21433838 2442.32967004 2726.70874023 2449.83374023 C2731.08782606 2455.79958611 2735.56077261 2461.68881759 2740.0625 2467.5625 C2745.52195656 2474.6889662 2750.84714321 2481.89191237 2756.06884766 2489.19384766 C2760.90970043 2495.93598658 2765.93963711 2502.52600271 2770.98828125 2509.11328125 C2775.3894518 2514.8634696 2779.72220925 2520.65753654 2784 2526.5 C2788.92552389 2533.22505881 2793.93348655 2539.88053224 2799 2546.5 C2804.65290465 2553.88559574 2810.21433838 2561.32967004 2815.70874023 2568.83374023 C2820.08782606 2574.79958611 2824.56077261 2580.68881759 2829.0625 2586.5625 C2834.52195656 2593.6889662 2839.84714321 2600.89191237 2845.06884766 2608.19384766 C2849.90970043 2614.93598658 2854.93963711 2621.52600271 2859.98828125 2628.11328125 C2864.3894518 2633.8634696 2868.72220925 2639.65753654 2873 2645.5 C2877.92552389 2652.22505881 2882.93348655 2658.88053224 2888 2665.5 C2893.65290465 2672.88559574 2899.21433838 2680.32967004 2904.70874023 2687.83374023 C2909.08782606 2693.79958611 2913.56077261 2699.68881759 2918.0625 2705.5625 C2923.52195656 2712.6889662 2928.84714321 2719.89191237 2934.06884766 2727.19384766 C2938.90970043 2733.93598658 2943.93963711 2740.52600271 2948.98828125 2747.11328125 C2953.38945089 2752.8634684 2957.72226624 2758.65749533 2962 2764.5 C2967.04796594 2771.39349009 2972.18472118 2778.21303638 2977.375 2785 C2986.24568786 2796.61320886 2986.24568786 2796.61320886 2990 2801.6875 C2990.598125 2802.49574219 2991.19625 2803.30398437 2991.8125 2804.13671875 C2993 2806 2993 2806 2993 2808 C2907.994845 2808.35992697 2822.98959795 2808.69381647 2737.98388672 2808.88920593 C2736.09674204 2808.89355473 2736.09674204 2808.89355473 2734.17147323 2808.89799138 C2706.82969011 2808.96084235 2679.4878989 2809.01901618 2652.14609563 2809.07237192 C2639.41132881 2809.09722969 2626.67656385 2809.12299043 2613.94180011 2809.14938127 C2611.92039128 2809.1535655 2609.8989824 2809.15772599 2607.87757352 2809.16188548 C2576.75927726 2809.22612751 2545.64115354 2809.30817881 2514.52307129 2809.44195557 C2513.51985587 2809.44626788 2513.51985587 2809.44626788 2512.49637348 2809.45066731 C2501.71351561 2809.49712576 2490.9306644 2809.54508207 2480.147814 2809.59323725 C2435.03213859 2809.79468634 2389.91670219 2809.92895394 2344.80056609 2809.97221479 C2338.52329325 2809.97826605 2332.24602149 2809.98510442 2325.96875 2809.9924221 C2324.73329224 2809.99383799 2323.49783448 2809.99525387 2322.2249386 2809.99671266 C2302.33664553 2810.02152973 2282.4493383 2810.11892937 2262.56144728 2810.24347271 C2242.56750497 2810.3671312 2222.57454 2810.41432205 2202.58022869 2810.38352893 C2190.70007947 2810.36755456 2178.82350689 2810.41013542 2166.94400363 2810.5367484 C2159.00482097 2810.61558375 2151.06797596 2810.61788637 2143.12863095 2810.55846809 C2138.6051756 2810.52679122 2134.08847074 2810.52790145 2129.5657444 2810.62254683 C2103.55369395 2811.13546099 2103.55369395 2811.13546099 2096.05588293 2805.97281848 C2091.10317208 2801.18125246 2087.67612183 2795.7694595 2084.49146819 2789.69882562 C2082.06127806 2785.30137388 2078.99138014 2781.41378575 2075.9375 2777.4375 C2074.78689707 2775.87624745 2073.63934407 2774.31273835 2072.49609375 2772.74609375 C2068.86544647 2767.80452165 2065.18596211 2762.90038463 2061.5 2758 C2056.64790452 2751.54927333 2051.83588485 2745.07166116 2047.0625 2738.5625 C2041.4523016 2730.91685547 2035.7247857 2723.36661918 2029.96118164 2715.83618164 C2024.99326998 2709.33396502 2020.12413668 2702.76537382 2015.2890625 2696.1640625 C2010.92722837 2690.22328388 2006.47937591 2684.35252911 2002 2678.5 C1996.32769077 2671.08717638 1990.73852758 2663.62071943 1985.21875 2656.09375 C1981.01673906 2650.36719994 1976.76959632 2644.67631017 1972.5 2639 C1967.64790452 2632.54927333 1962.83588485 2626.07166116 1958.0625 2619.5625 C1952.4523016 2611.91685547 1946.7247857 2604.36661918 1940.96118164 2596.83618164 C1935.99326998 2590.33396502 1931.12413668 2583.76537382 1926.2890625 2577.1640625 C1921.92722837 2571.22328388 1917.47937591 2565.35252911 1913 2559.5 C1907.32769077 2552.08717638 1901.73852758 2544.62071943 1896.21875 2537.09375 C1892.01673906 2531.36719994 1887.76959632 2525.67631017 1883.5 2520 C1878.64790452 2513.54927333 1873.83588485 2507.07166116 1869.0625 2500.5625 C1863.4523016 2492.91685547 1857.7247857 2485.36661918 1851.96118164 2477.83618164 C1846.99326998 2471.33396502 1842.12413668 2464.76537382 1837.2890625 2458.1640625 C1832.92722837 2452.22328388 1828.47937591 2446.35252911 1824 2440.5 C1818.32769077 2433.08717638 1812.73852758 2425.62071943 1807.21875 2418.09375 C1803.01673906 2412.36719994 1798.76959632 2406.67631017 1794.5 2401 C1789.64790452 2394.54927333 1784.83588485 2388.07166116 1780.0625 2381.5625 C1774.4523016 2373.91685547 1768.7247857 2366.36661918 1762.96118164 2358.83618164 C1757.99326998 2352.33396502 1753.12413668 2345.76537382 1748.2890625 2339.1640625 C1743.92722837 2333.22328388 1739.47937591 2327.35252911 1735 2321.5 C1729.32769077 2314.08717638 1723.73852758 2306.62071943 1718.21875 2299.09375 C1714.01673906 2293.36719994 1709.76959632 2287.67631017 1705.5 2282 C1700.64790452 2275.54927333 1695.83588485 2269.07166116 1691.0625 2262.5625 C1685.4523016 2254.91685547 1679.7247857 2247.36661918 1673.96118164 2239.83618164 C1668.99326998 2233.33396502 1664.12413668 2226.76537382 1659.2890625 2220.1640625 C1654.92722837 2214.22328388 1650.47937591 2208.35252911 1646 2202.5 C1640.32769077 2195.08717638 1634.73852758 2187.62071943 1629.21875 2180.09375 C1625.01673906 2174.36719994 1620.76959632 2168.67631017 1616.5 2163 C1611.64790452 2156.54927333 1606.83588485 2150.07166116 1602.0625 2143.5625 C1596.4523016 2135.91685547 1590.7247857 2128.36661918 1584.96118164 2120.83618164 C1579.99326998 2114.33396502 1575.12413668 2107.76537382 1570.2890625 2101.1640625 C1565.92722837 2095.22328388 1561.47937591 2089.35252911 1557 2083.5 C1551.32769077 2076.08717638 1545.73852758 2068.62071943 1540.21875 2061.09375 C1536.01673906 2055.36719994 1531.76959632 2049.67631017 1527.5 2044 C1522.64790452 2037.54927333 1517.83588485 2031.07166116 1513.0625 2024.5625 C1507.4523016 2016.91685547 1501.7247857 2009.36661918 1495.96118164 2001.83618164 C1490.99326998 1995.33396502 1486.12413668 1988.76537382 1481.2890625 1982.1640625 C1476.92722837 1976.22328388 1472.47937591 1970.35252911 1468 1964.5 C1462.32769077 1957.08717638 1456.73852758 1949.62071943 1451.21875 1942.09375 C1447.01673906 1936.36719994 1442.76959632 1930.67631017 1438.5 1925 C1433.64790452 1918.54927333 1428.83588485 1912.07166116 1424.0625 1905.5625 C1418.4523016 1897.91685547 1412.7247857 1890.36661918 1406.96118164 1882.83618164 C1401.99326998 1876.33396502 1397.12413668 1869.76537382 1392.2890625 1863.1640625 C1387.92722837 1857.22328388 1383.47937591 1851.35252911 1379 1845.5 C1373.32769077 1838.08717638 1367.73852758 1830.62071943 1362.21875 1823.09375 C1358.01673906 1817.36719994 1353.76959632 1811.67631017 1349.5 1806 C1344.64790452 1799.54927333 1339.83588485 1793.07166116 1335.0625 1786.5625 C1329.4523016 1778.91685547 1323.7247857 1771.36661918 1317.96118164 1763.83618164 C1313.57945187 1758.1011851 1309.26466087 1752.32248056 1305 1746.5 C1298.64052562 1737.81807052 1292.13391242 1729.25337846 1285.59375 1720.70703125 C1282.36852478 1716.49162045 1279.17502473 1712.25332108 1276 1708 C1271.05634118 1711.99700075 1266.84500731 1716.27695601 1262.640625 1721.0390625 C1259.54172002 1724.51387016 1256.37097141 1727.91532633 1253.1875 1731.3125 C1248.73513861 1736.0697767 1244.29182582 1740.83469527 1239.875 1745.625 C1239.14228882 1746.41958618 1239.14228882 1746.41958618 1238.39477539 1747.23022461 C1236.9295127 1748.81983911 1235.46467174 1750.40984099 1234 1752 C1227.07363461 1759.51978893 1220.1232884 1767.01586305 1213.14111328 1774.48388672 C1208.67715779 1779.26308982 1204.2557427 1784.07901093 1199.84375 1788.90625 C1195.99002945 1793.11030878 1192.08718356 1797.26856185 1188.19140625 1801.43359375 C1184.60612869 1805.2699192 1181.04247746 1809.1241129 1177.5 1813 C1172.76668149 1818.17880731 1167.98405276 1823.30970601 1163.19140625 1828.43359375 C1159.60612869 1832.2699192 1156.04247746 1836.1241129 1152.5 1840 C1148.36208816 1844.52736236 1144.18975405 1849.02059512 1140 1853.5 C1134.86752466 1858.98806767 1129.77025729 1864.50595224 1124.69921875 1870.05078125 C1116.89706568 1878.575565 1109.033535 1887.04222008 1101.14135742 1895.48364258 C1096.67730163 1900.26290959 1092.25582031 1905.07892601 1087.84375 1909.90625 C1083.99002945 1914.11030878 1080.08718356 1918.26856185 1076.19140625 1922.43359375 C1072.60612869 1926.2699192 1069.04247746 1930.1241129 1065.5 1934 C1060.76668149 1939.17880731 1055.98405276 1944.30970601 1051.19140625 1949.43359375 C1047.60612869 1953.2699192 1044.04247746 1957.1241129 1040.5 1961 C1035.76668149 1966.17880731 1030.98405276 1971.30970601 1026.19140625 1976.43359375 C1022.60612869 1980.2699192 1019.04247746 1984.1241129 1015.5 1988 C1011.36208816 1992.52736236 1007.18975405 1997.02059512 1003 2001.5 C997.86752466 2006.98806767 992.77025729 2012.50595224 987.69921875 2018.05078125 C979.89706568 2026.575565 972.033535 2035.04222008 964.14135742 2043.48364258 C959.67730163 2048.26290959 955.25582031 2053.07892601 950.84375 2057.90625 C946.99002945 2062.11030878 943.08718356 2066.26856185 939.19140625 2070.43359375 C935.60612869 2074.2699192 932.04247746 2078.1241129 928.5 2082 C923.76668149 2087.17880731 918.98405276 2092.30970601 914.19140625 2097.43359375 C910.60612869 2101.2699192 907.04247746 2105.1241129 903.5 2109 C899.36208816 2113.52736236 895.18975405 2118.02059512 891 2122.5 C885.86752466 2127.98806767 880.77025729 2133.50595224 875.69921875 2139.05078125 C867.89706568 2147.575565 860.033535 2156.04222008 852.14135742 2164.48364258 C847.67730163 2169.26290959 843.25582031 2174.07892601 838.84375 2178.90625 C834.99002945 2183.11030878 831.08718356 2187.26856185 827.19140625 2191.43359375 C823.60612869 2195.2699192 820.04247746 2199.1241129 816.5 2203 C811.76668149 2208.17880731 806.98405276 2213.30970601 802.19140625 2218.43359375 C798.60612869 2222.2699192 795.04247746 2226.1241129 791.5 2230 C786.76668149 2235.17880731 781.98405276 2240.30970601 777.19140625 2245.43359375 C773.60612869 2249.2699192 770.04247746 2253.1241129 766.5 2257 C762.36208816 2261.52736236 758.18975405 2266.02059512 754 2270.5 C748.86752466 2275.98806767 743.77025729 2281.50595224 738.69921875 2287.05078125 C730.89706568 2295.575565 723.033535 2304.04222008 715.14135742 2312.48364258 C710.67730163 2317.26290959 706.25582031 2322.07892601 701.84375 2326.90625 C697.99002945 2331.11030878 694.08718356 2335.26856185 690.19140625 2339.43359375 C686.60612869 2343.2699192 683.04247746 2347.1241129 679.5 2351 C674.76668149 2356.17880731 669.98405276 2361.30970601 665.19140625 2366.43359375 C661.60612869 2370.2699192 658.04247746 2374.1241129 654.5 2378 C649.76668149 2383.17880731 644.98405276 2388.30970601 640.19140625 2393.43359375 C636.60612869 2397.2699192 633.04247746 2401.1241129 629.5 2405 C625.36208816 2409.52736236 621.18975405 2414.02059512 617 2418.5 C611.86752466 2423.98806767 606.77025729 2429.50595224 601.69921875 2435.05078125 C593.89706568 2443.575565 586.033535 2452.04222008 578.14135742 2460.48364258 C573.67730163 2465.26290959 569.25582031 2470.07892601 564.84375 2474.90625 C560.99002945 2479.11030878 557.08718356 2483.26856185 553.19140625 2487.43359375 C549.60612869 2491.2699192 546.04247746 2495.1241129 542.5 2499 C537.76668149 2504.17880731 532.98405276 2509.30970601 528.19140625 2514.43359375 C524.60612869 2518.2699192 521.04247746 2522.1241129 517.5 2526 C513.36208816 2530.52736236 509.18975405 2535.02059512 505 2539.5 C499.86752466 2544.98806767 494.77025729 2550.50595224 489.69921875 2556.05078125 C481.89706568 2564.575565 474.033535 2573.04222008 466.14135742 2581.48364258 C461.67730163 2586.26290959 457.25582031 2591.07892601 452.84375 2595.90625 C448.99002945 2600.11030878 445.08718356 2604.26856185 441.19140625 2608.43359375 C437.60612869 2612.2699192 434.04247746 2616.1241129 430.5 2620 C425.76668149 2625.17880731 420.98405276 2630.30970601 416.19140625 2635.43359375 C412.60612869 2639.2699192 409.04247746 2643.1241129 405.5 2647 C400.76668149 2652.17880731 395.98405276 2657.30970601 391.19140625 2662.43359375 C387.60612869 2666.2699192 384.04247746 2670.1241129 380.5 2674 C376.36208816 2678.52736236 372.18975405 2683.02059512 368 2687.5 C362.86752466 2692.98806767 357.77025729 2698.50595224 352.69921875 2704.05078125 C344.89706568 2712.575565 337.033535 2721.04222008 329.14135742 2729.48364258 C324.67730163 2734.26290959 320.25582031 2739.07892601 315.84375 2743.90625 C311.99002945 2748.11030878 308.08718356 2752.26856185 304.19140625 2756.43359375 C300.60612869 2760.2699192 297.04247746 2764.1241129 293.5 2768 C289.36208668 2772.52736399 285.18963771 2777.02048465 281 2781.5 C276.65110174 2786.15242006 272.30964101 2790.81115873 268 2795.5 C267.175 2796.3971875 266.35 2797.294375 265.5 2798.21875 C263.10782491 2800.74489973 263.10782491 2800.74489973 261.8210777 2802.77326256 C259.78334948 2805.65697094 258.19264412 2807.66401368 254.71733022 2808.64306343 C251.87546875 2808.88361887 249.10766619 2808.89936605 246.25601196 2808.84178162 C245.17282759 2808.84776259 244.08964322 2808.85374356 242.97363508 2808.85990578 C239.34309038 2808.87143863 235.71480878 2808.83293302 232.08447266 2808.79467773 C229.48263604 2808.7927033 226.88079553 2808.79381137 224.27896118 2808.79777527 C218.67703439 2808.80144265 213.07567907 2808.77951407 207.47389603 2808.7401104 C199.37479982 2808.68317744 191.27597944 2808.66498597 183.17670481 2808.65619446 C170.03577813 2808.64088075 156.89515593 2808.5943147 143.75439453 2808.52807617 C130.99073813 2808.46380548 118.22716449 2808.41426521 105.46337891 2808.38452148 C104.67638841 2808.38268242 103.88939792 2808.38084336 103.07855923 2808.37894856 C99.13038875 2808.36981318 95.18221768 2808.36096725 91.23404622 2808.35226524 C58.48914251 2808.27971905 25.74461201 2808.15644557 -7 2808 C-5.57567584 2805.02183282 -4.22096735 2803.02068318 -1.8125 2800.75 C0.69603336 2798.3765867 2.99307827 2795.88788175 5.25390625 2793.28125 C8.97502025 2788.99552253 12.84317298 2784.86610434 16.75 2780.75 C22.2934378 2774.88579381 27.7877743 2768.98487201 33.2265625 2763.0234375 C36.45743622 2759.49048063 39.72937744 2755.99612198 43 2752.5 C47.1898315 2748.02066868 51.36208916 2743.52736128 55.5 2739 C60.23331851 2733.82119269 65.01594724 2728.69029399 69.80859375 2723.56640625 C73.39387131 2719.7300808 76.95752254 2715.8758871 80.5 2712 C85.23331851 2706.82119269 90.01594724 2701.69029399 94.80859375 2696.56640625 C98.39387131 2692.7300808 101.95752254 2688.8758871 105.5 2685 C109.63791184 2680.47263764 113.81024595 2675.97940488 118 2671.5 C123.13247534 2666.01193233 128.22974271 2660.49404776 133.30078125 2654.94921875 C141.10293432 2646.424435 148.966465 2637.95777992 156.85864258 2629.51635742 C161.32269837 2624.73709041 165.74417969 2619.92107399 170.15625 2615.09375 C174.00997055 2610.88969122 177.91281644 2606.73143815 181.80859375 2602.56640625 C185.39387131 2598.7300808 188.95752254 2594.8758871 192.5 2591 C197.23331851 2585.82119269 202.01594724 2580.69029399 206.80859375 2575.56640625 C210.39387131 2571.7300808 213.95752254 2567.8758871 217.5 2564 C222.23331851 2558.82119269 227.01594724 2553.69029399 231.80859375 2548.56640625 C235.39387131 2544.7300808 238.95752254 2540.8758871 242.5 2537 C246.63791184 2532.47263764 250.81024595 2527.97940488 255 2523.5 C260.13247534 2518.01193233 265.22974271 2512.49404776 270.30078125 2506.94921875 C278.10293432 2498.424435 285.966465 2489.95777992 293.85864258 2481.51635742 C298.32269837 2476.73709041 302.74417969 2471.92107399 307.15625 2467.09375 C311.00997055 2462.88969122 314.91281644 2458.73143815 318.80859375 2454.56640625 C322.39387131 2450.7300808 325.95752254 2446.8758871 329.5 2443 C334.23331851 2437.82119269 339.01594724 2432.69029399 343.80859375 2427.56640625 C347.39387131 2423.7300808 350.95752254 2419.8758871 354.5 2416 C359.23331851 2410.82119269 364.01594724 2405.69029399 368.80859375 2400.56640625 C372.39387131 2396.7300808 375.95752254 2392.8758871 379.5 2389 C383.63791184 2384.47263764 387.81024595 2379.97940488 392 2375.5 C397.13247534 2370.01193233 402.22974271 2364.49404776 407.30078125 2358.94921875 C415.10293432 2350.424435 422.966465 2341.95777992 430.85864258 2333.51635742 C435.32269837 2328.73709041 439.74417969 2323.92107399 444.15625 2319.09375 C448.00997055 2314.88969122 451.91281644 2310.73143815 455.80859375 2306.56640625 C459.39387131 2302.7300808 462.95752254 2298.8758871 466.5 2295 C471.23331851 2289.82119269 476.01594724 2284.69029399 480.80859375 2279.56640625 C484.39387131 2275.7300808 487.95752254 2271.8758871 491.5 2268 C496.23331851 2262.82119269 501.01594724 2257.69029399 505.80859375 2252.56640625 C509.39387131 2248.7300808 512.95752254 2244.8758871 516.5 2241 C520.63791184 2236.47263764 524.81024595 2231.97940488 529 2227.5 C534.13247534 2222.01193233 539.22974271 2216.49404776 544.30078125 2210.94921875 C552.10293432 2202.424435 559.966465 2193.95777992 567.85864258 2185.51635742 C572.32269837 2180.73709041 576.74417969 2175.92107399 581.15625 2171.09375 C585.00997055 2166.88969122 588.91281644 2162.73143815 592.80859375 2158.56640625 C596.39387131 2154.7300808 599.95752254 2150.8758871 603.5 2147 C608.23331851 2141.82119269 613.01594724 2136.69029399 617.80859375 2131.56640625 C621.39387131 2127.7300808 624.95752254 2123.8758871 628.5 2120 C633.23331851 2114.82119269 638.01594724 2109.69029399 642.80859375 2104.56640625 C646.39387131 2100.7300808 649.95752254 2096.8758871 653.5 2093 C657.63791184 2088.47263764 661.81024595 2083.97940488 666 2079.5 C671.13247534 2074.01193233 676.22974271 2068.49404776 681.30078125 2062.94921875 C689.10293432 2054.424435 696.966465 2045.95777992 704.85864258 2037.51635742 C709.32269837 2032.73709041 713.74417969 2027.92107399 718.15625 2023.09375 C722.00997055 2018.88969122 725.91281644 2014.73143815 729.80859375 2010.56640625 C733.39387131 2006.7300808 736.95752254 2002.8758871 740.5 1999 C745.23331851 1993.82119269 750.01594724 1988.69029399 754.80859375 1983.56640625 C758.39387131 1979.7300808 761.95752254 1975.8758871 765.5 1972 C770.23331851 1966.82119269 775.01594724 1961.69029399 779.80859375 1956.56640625 C783.39387131 1952.7300808 786.95752254 1948.8758871 790.5 1945 C794.63791184 1940.47263764 798.81024595 1935.97940488 803 1931.5 C808.13247534 1926.01193233 813.22974271 1920.49404776 818.30078125 1914.94921875 C826.10293432 1906.424435 833.966465 1897.95777992 841.85864258 1889.51635742 C846.32269837 1884.73709041 850.74417969 1879.92107399 855.15625 1875.09375 C859.00997055 1870.88969122 862.91281644 1866.73143815 866.80859375 1862.56640625 C870.39387131 1858.7300808 873.95752254 1854.8758871 877.5 1851 C882.23331851 1845.82119269 887.01594724 1840.69029399 891.80859375 1835.56640625 C895.39387131 1831.7300808 898.95752254 1827.8758871 902.5 1824 C907.23331851 1818.82119269 912.01594724 1813.69029399 916.80859375 1808.56640625 C920.39387131 1804.7300808 923.95752254 1800.8758871 927.5 1797 C931.63791184 1792.47263764 935.81024595 1787.97940488 940 1783.5 C945.13247534 1778.01193233 950.22974271 1772.49404776 955.30078125 1766.94921875 C963.10293432 1758.424435 970.966465 1749.95777992 978.85864258 1741.51635742 C983.32269837 1736.73709041 987.74417969 1731.92107399 992.15625 1727.09375 C996.00997055 1722.88969122 999.91281644 1718.73143815 1003.80859375 1714.56640625 C1007.39387131 1710.7300808 1010.95752254 1706.8758871 1014.5 1703 C1019.23331851 1697.82119269 1024.01594724 1692.69029399 1028.80859375 1687.56640625 C1032.39387131 1683.7300808 1035.95752254 1679.8758871 1039.5 1676 C1044.23331851 1670.82119269 1049.01594724 1665.69029399 1053.80859375 1660.56640625 C1057.39387131 1656.7300808 1060.95752254 1652.8758871 1064.5 1649 C1068.63791184 1644.47263764 1072.81024595 1639.97940488 1077 1635.5 C1082.13247534 1630.01193233 1087.22974271 1624.49404776 1092.30078125 1618.94921875 C1100.10293432 1610.424435 1107.966465 1601.95777992 1115.85864258 1593.51635742 C1120.32269837 1588.73709041 1124.74417969 1583.92107399 1129.15625 1579.09375 C1132.99981597 1574.90076894 1136.89224231 1570.75334985 1140.77783203 1566.59936523 C1146.22588311 1560.76993548 1151.62190783 1554.89394999 1157 1549 C1153.09885908 1542.97431882 1148.96145881 1537.24551953 1144.5 1531.625 C1139.5990077 1525.38897271 1134.80624065 1519.09009971 1130.125 1512.6875 C1125.15945942 1505.89836884 1120.11325765 1499.1785907 1115 1492.5 C1109.32756487 1485.08727456 1103.7385256 1477.62071673 1098.21875 1470.09375 C1094.01673906 1464.36719994 1089.76959632 1458.67631017 1085.5 1453 C1080.64790452 1446.54927333 1075.83588485 1440.07166116 1071.0625 1433.5625 C1065.4523016 1425.91685547 1059.7247857 1418.36661918 1053.96118164 1410.83618164 C1048.99326998 1404.33396502 1044.12413668 1397.76537382 1039.2890625 1391.1640625 C1034.92722868 1385.22328431 1030.4793966 1379.35251303 1026 1373.5 C1020.25628366 1365.9943524 1014.59794097 1358.43312357 1009.0078125 1350.8125 C1005.36846391 1345.85201802 1001.70023321 1340.91521683 998 1336 C993.70917798 1330.30027261 989.46976112 1324.56499947 985.25 1318.8125 C979.57681778 1311.08436511 973.78860854 1303.44997046 967.96191406 1295.8371582 C962.99377647 1289.33460185 958.12437737 1282.76570244 953.2890625 1276.1640625 C948.92722837 1270.22328388 944.47937591 1264.35252911 940 1258.5 C934.32769077 1251.08717638 928.73852758 1243.62071943 923.21875 1236.09375 C919.01673906 1230.36719994 914.76959632 1224.67631017 910.5 1219 C905.64790452 1212.54927333 900.83588485 1206.07166116 896.0625 1199.5625 C890.4523016 1191.91685547 884.7247857 1184.36661918 878.96118164 1176.83618164 C873.99326998 1170.33396502 869.12413668 1163.76537382 864.2890625 1157.1640625 C859.92722837 1151.22328388 855.47937591 1145.35252911 851 1139.5 C845.32769077 1132.08717638 839.73852758 1124.62071943 834.21875 1117.09375 C830.01673906 1111.36719994 825.76959632 1105.67631017 821.5 1100 C816.64790452 1093.54927333 811.83588485 1087.07166116 807.0625 1080.5625 C801.4523016 1072.91685547 795.7247857 1065.36661918 789.96118164 1057.83618164 C784.99326998 1051.33396502 780.12413668 1044.76537382 775.2890625 1038.1640625 C770.92722868 1032.22328431 766.4793966 1026.35251303 762 1020.5 C756.25628366 1012.9943524 750.59794097 1005.43312357 745.0078125 997.8125 C741.36846391 992.85201802 737.70023321 987.91521683 734 983 C729.70917798 977.30027261 725.46976112 971.56499947 721.25 965.8125 C715.57681778 958.08436511 709.78860854 950.44997046 703.96191406 942.8371582 C698.99377647 936.33460185 694.12437737 929.76570244 689.2890625 923.1640625 C684.92722837 917.22328388 680.47937591 911.35252911 676 905.5 C670.32769077 898.08717638 664.73852758 890.62071943 659.21875 883.09375 C655.01673906 877.36719994 650.76959632 871.67631017 646.5 866 C641.64790452 859.54927333 636.83588485 853.07166116 632.0625 846.5625 C626.4523016 838.91685547 620.7247857 831.36661918 614.96118164 823.83618164 C609.99326998 817.33396502 605.12413668 810.76537382 600.2890625 804.1640625 C595.92722837 798.22328388 591.47937591 792.35252911 587 786.5 C581.32769077 779.08717638 575.73852758 771.62071943 570.21875 764.09375 C566.01673906 758.36719994 561.76959632 752.67631017 557.5 747 C552.64790452 740.54927333 547.83588485 734.07166116 543.0625 727.5625 C537.4523016 719.91685547 531.7247857 712.36661918 525.96118164 704.83618164 C520.99326998 698.33396502 516.12413668 691.76537382 511.2890625 685.1640625 C506.92722837 679.22328388 502.47937591 673.35252911 498 667.5 C492.32769077 660.08717638 486.73852758 652.62071943 481.21875 645.09375 C477.01673906 639.36719994 472.76959632 633.67631017 468.5 628 C463.64790452 621.54927333 458.83588485 615.07166116 454.0625 608.5625 C448.4523016 600.91685547 442.7247857 593.36661918 436.96118164 585.83618164 C431.99326998 579.33396502 427.12413668 572.76537382 422.2890625 566.1640625 C417.92722868 560.22328431 413.4793966 554.35251303 409 548.5 C403.25628366 540.9943524 397.59794097 533.43312357 392.0078125 525.8125 C388.36846391 520.85201802 384.70023321 515.91521683 381 511 C376.70917798 505.30027261 372.46976112 499.56499947 368.25 493.8125 C362.57681778 486.08436511 356.78860854 478.44997046 350.96191406 470.8371582 C345.99377647 464.33460185 341.12437737 457.76570244 336.2890625 451.1640625 C331.92722837 445.22328388 327.47937591 439.35252911 323 433.5 C317.32769077 426.08717638 311.73852758 418.62071943 306.21875 411.09375 C302.01673906 405.36719994 297.76959632 399.67631017 293.5 394 C288.64790452 387.54927333 283.83588485 381.07166116 279.0625 374.5625 C273.4523016 366.91685547 267.7247857 359.36661918 261.96118164 351.83618164 C256.99326998 345.33396502 252.12413668 338.76537382 247.2890625 332.1640625 C242.92722837 326.22328388 238.47937591 320.35252911 234 314.5 C228.32769077 307.08717638 222.73852758 299.62071943 217.21875 292.09375 C213.01673906 286.36719994 208.76959632 280.67631017 204.5 275 C199.64790452 268.54927333 194.83588485 262.07166116 190.0625 255.5625 C184.4523016 247.91685547 178.7247857 240.36661918 172.96118164 232.83618164 C167.99326998 226.33396502 163.12413668 219.76537382 158.2890625 213.1640625 C153.92722868 207.22328431 149.4793966 201.35251303 145 195.5 C139.25628366 187.9943524 133.59794097 180.43312357 128.0078125 172.8125 C124.36846391 167.85201802 120.70023321 162.91521683 117 158 C112.70917798 152.30027261 108.46976112 146.56499947 104.25 140.8125 C98.57681778 133.08436511 92.78860854 125.44997046 86.96191406 117.8371582 C81.99377647 111.33460185 77.12437737 104.76570244 72.2890625 98.1640625 C67.92722837 92.22328388 63.47937591 86.35252911 59 80.5 C53.32769077 73.08717638 47.73852758 65.62071943 42.21875 58.09375 C38.01673746 52.36719776 33.76942919 46.67643768 29.5 41 C22.78020709 32.06122637 16.12524643 23.076371 9.51123047 14.05908203 C8.12593945 12.17159504 6.73725348 10.2866611 5.34765625 8.40234375 C4.61417969 7.40332031 3.88070313 6.40429688 3.125 5.375 C2.50882813 4.53710938 1.89265625 3.69921875 1.2578125 2.8359375 C0 1 0 1 0 0 Z M388 194 C388.62871002 195.1107489 389.25742004 196.2214978 389.90518188 197.36590576 C390.25883127 197.99070202 390.61248066 198.61549828 390.97684669 199.25922775 C392.16752983 201.28503184 393.49484428 203.1176576 394.9609375 204.953125 C395.50733887 205.64446533 396.05374023 206.33580566 396.61669922 207.0480957 C397.19693848 207.77472412 397.77717773 208.50135254 398.375 209.25 C403.32222759 215.52508576 408.16098816 221.86036089 412.875 228.3125 C417.85660694 235.1264383 422.92688806 241.86390237 428.0625 248.5625 C433.5220778 255.68887088 438.84714605 262.89191634 444.06884766 270.19384766 C448.90970043 276.93598658 453.93963711 283.52600271 458.98828125 290.11328125 C463.3894518 295.8634696 467.72220925 301.65753654 472 307.5 C476.92552389 314.22505881 481.93348655 320.88053224 487 327.5 C492.65290465 334.88559574 498.21433838 342.32967004 503.70874023 349.83374023 C508.08782606 355.79958611 512.56077261 361.68881759 517.0625 367.5625 C522.52195656 374.6889662 527.84714321 381.89191237 533.06884766 389.19384766 C537.90970043 395.93598658 542.93963711 402.52600271 547.98828125 409.11328125 C552.3894518 414.8634696 556.72220925 420.65753654 561 426.5 C565.92552389 433.22505881 570.93348655 439.88053224 576 446.5 C581.65290465 453.88559574 587.21433838 461.32967004 592.70874023 468.83374023 C597.08782606 474.79958611 601.56077261 480.68881759 606.0625 486.5625 C611.52195656 493.6889662 616.84714321 500.89191237 622.06884766 508.19384766 C626.90970043 514.93598658 631.93963711 521.52600271 636.98828125 528.11328125 C641.3894518 533.8634696 645.72220925 539.65753654 650 545.5 C654.92552389 552.22505881 659.93348655 558.88053224 665 565.5 C670.65290465 572.88559574 676.21433838 580.32967004 681.70874023 587.83374023 C686.08782606 593.79958611 690.56077261 599.68881759 695.0625 605.5625 C700.52195656 612.6889662 705.84714321 619.89191237 711.06884766 627.19384766 C715.90970043 633.93598658 720.93963711 640.52600271 725.98828125 647.11328125 C730.3894518 652.8634696 734.72220925 658.65753654 739 664.5 C743.92552389 671.22505881 748.93348655 677.88053224 754 684.5 C759.65290465 691.88559574 765.21433838 699.32967004 770.70874023 706.83374023 C775.08782606 712.79958611 779.56077261 718.68881759 784.0625 724.5625 C789.52195656 731.6889662 794.84714321 738.89191237 800.06884766 746.19384766 C804.90970043 752.93598658 809.93963711 759.52600271 814.98828125 766.11328125 C819.3894518 771.8634696 823.72220925 777.65753654 828 783.5 C832.92552389 790.22505881 837.93348655 796.88053224 843 803.5 C848.65067561 810.88268346 854.21023936 818.32359573 859.70214844 825.82495117 C864.14481102 831.87779513 868.68378637 837.85247959 873.25 843.8125 C877.99569878 850.00877085 882.65458099 856.24064107 887.14257812 862.62548828 C891.54319952 868.84399405 896.20347725 874.86366787 900.8359375 880.91015625 C905.28724225 886.72852838 909.6724824 892.58907773 914 898.5 C918.92549154 905.22508218 923.93348707 911.88053292 929 918.5 C934.65290465 925.88559574 940.21433838 933.32967004 945.70874023 940.83374023 C950.08782606 946.79958611 954.56077261 952.68881759 959.0625 958.5625 C964.52195656 965.6889662 969.84714321 972.89191237 975.06884766 980.19384766 C979.90970043 986.93598658 984.93963711 993.52600271 989.98828125 1000.11328125 C994.3894518 1005.8634696 998.72220925 1011.65753654 1003 1017.5 C1007.92552389 1024.22505881 1012.93348655 1030.88053224 1018 1037.5 C1023.65290465 1044.88559574 1029.21433838 1052.32967004 1034.70874023 1059.83374023 C1039.08782606 1065.79958611 1043.56077261 1071.68881759 1048.0625 1077.5625 C1053.52195656 1084.6889662 1058.84714321 1091.89191237 1064.06884766 1099.19384766 C1068.90970043 1105.93598658 1073.93963711 1112.52600271 1078.98828125 1119.11328125 C1083.3894518 1124.8634696 1087.72220925 1130.65753654 1092 1136.5 C1096.92552389 1143.22505881 1101.93348655 1149.88053224 1107 1156.5 C1112.65290465 1163.88559574 1118.21433838 1171.32967004 1123.70874023 1178.83374023 C1128.08782606 1184.79958611 1132.56077261 1190.68881759 1137.0625 1196.5625 C1142.52195656 1203.6889662 1147.84714321 1210.89191237 1153.06884766 1218.19384766 C1157.90970043 1224.93598658 1162.93963711 1231.52600271 1167.98828125 1238.11328125 C1172.3894518 1243.8634696 1176.72220925 1249.65753654 1181 1255.5 C1185.92552389 1262.22505881 1190.93348655 1268.88053224 1196 1275.5 C1201.65290465 1282.88559574 1207.21433838 1290.32967004 1212.70874023 1297.83374023 C1217.08782606 1303.79958611 1221.56077261 1309.68881759 1226.0625 1315.5625 C1231.52195656 1322.6889662 1236.84714321 1329.89191237 1242.06884766 1337.19384766 C1246.90970043 1343.93598658 1251.93963711 1350.52600271 1256.98828125 1357.11328125 C1261.3894518 1362.8634696 1265.72220925 1368.65753654 1270 1374.5 C1274.92552389 1381.22505881 1279.93348655 1387.88053224 1285 1394.5 C1290.65290465 1401.88559574 1296.21433838 1409.32967004 1301.70874023 1416.83374023 C1306.08782606 1422.79958611 1310.56077261 1428.68881759 1315.0625 1434.5625 C1320.52195656 1441.6889662 1325.84714321 1448.89191237 1331.06884766 1456.19384766 C1335.90970043 1462.93598658 1340.93963711 1469.52600271 1345.98828125 1476.11328125 C1350.3894518 1481.8634696 1354.72220925 1487.65753654 1359 1493.5 C1363.92552389 1500.22505881 1368.93348655 1506.88053224 1374 1513.5 C1379.65290465 1520.88559574 1385.21433838 1528.32967004 1390.70874023 1535.83374023 C1395.08782606 1541.79958611 1399.56077261 1547.68881759 1404.0625 1553.5625 C1409.52195656 1560.6889662 1414.84714321 1567.89191237 1420.06884766 1575.19384766 C1424.90970043 1581.93598658 1429.93963711 1588.52600271 1434.98828125 1595.11328125 C1439.3894518 1600.8634696 1443.72220925 1606.65753654 1448 1612.5 C1452.92552389 1619.22505881 1457.93348655 1625.88053224 1463 1632.5 C1468.65290465 1639.88559574 1474.21433838 1647.32967004 1479.70874023 1654.83374023 C1484.08782606 1660.79958611 1488.56077261 1666.68881759 1493.0625 1672.5625 C1498.52195656 1679.6889662 1503.84714321 1686.89191237 1509.06884766 1694.19384766 C1513.90970043 1700.93598658 1518.93963711 1707.52600271 1523.98828125 1714.11328125 C1528.3894518 1719.8634696 1532.72220925 1725.65753654 1537 1731.5 C1541.92552389 1738.22505881 1546.93348655 1744.88053224 1552 1751.5 C1557.65290465 1758.88559574 1563.21433838 1766.32967004 1568.70874023 1773.83374023 C1573.08782606 1779.79958611 1577.56077261 1785.68881759 1582.0625 1791.5625 C1587.52195656 1798.6889662 1592.84714321 1805.89191237 1598.06884766 1813.19384766 C1602.90970043 1819.93598658 1607.93963711 1826.52600271 1612.98828125 1833.11328125 C1617.3894518 1838.8634696 1621.72220925 1844.65753654 1626 1850.5 C1630.92552389 1857.22505881 1635.93348655 1863.88053224 1641 1870.5 C1646.65290465 1877.88559574 1652.21433838 1885.32967004 1657.70874023 1892.83374023 C1662.08782606 1898.79958611 1666.56077261 1904.68881759 1671.0625 1910.5625 C1676.52195656 1917.6889662 1681.84714321 1924.89191237 1687.06884766 1932.19384766 C1691.90970043 1938.93598658 1696.93963711 1945.52600271 1701.98828125 1952.11328125 C1706.3894518 1957.8634696 1710.72220925 1963.65753654 1715 1969.5 C1719.92552389 1976.22505881 1724.93348655 1982.88053224 1730 1989.5 C1735.65290465 1996.88559574 1741.21433838 2004.32967004 1746.70874023 2011.83374023 C1751.08782606 2017.79958611 1755.56077261 2023.68881759 1760.0625 2029.5625 C1765.52195656 2036.6889662 1770.84714321 2043.89191237 1776.06884766 2051.19384766 C1780.90970043 2057.93598658 1785.93963711 2064.52600271 1790.98828125 2071.11328125 C1795.3894518 2076.8634696 1799.72220925 2082.65753654 1804 2088.5 C1808.92552389 2095.22505881 1813.93348655 2101.88053224 1819 2108.5 C1824.65290465 2115.88559574 1830.21433838 2123.32967004 1835.70874023 2130.83374023 C1840.08782606 2136.79958611 1844.56077261 2142.68881759 1849.0625 2148.5625 C1854.52195656 2155.6889662 1859.84714321 2162.89191237 1865.06884766 2170.19384766 C1869.90970043 2176.93598658 1874.93963711 2183.52600271 1879.98828125 2190.11328125 C1884.3894518 2195.8634696 1888.72220925 2201.65753654 1893 2207.5 C1897.92552389 2214.22505881 1902.93348655 2220.88053224 1908 2227.5 C1913.65290465 2234.88559574 1919.21433838 2242.32967004 1924.70874023 2249.83374023 C1929.08782606 2255.79958611 1933.56077261 2261.68881759 1938.0625 2267.5625 C1943.52195656 2274.6889662 1948.84714321 2281.89191237 1954.06884766 2289.19384766 C1958.90970043 2295.93598658 1963.93963711 2302.52600271 1968.98828125 2309.11328125 C1973.3894518 2314.8634696 1977.72220925 2320.65753654 1982 2326.5 C1986.92552389 2333.22505881 1991.93348655 2339.88053224 1997 2346.5 C2002.65290465 2353.88559574 2008.21433838 2361.32967004 2013.70874023 2368.83374023 C2018.08782606 2374.79958611 2022.56077261 2380.68881759 2027.0625 2386.5625 C2032.52195656 2393.6889662 2037.84714321 2400.89191237 2043.06884766 2408.19384766 C2047.90970043 2414.93598658 2052.93963711 2421.52600271 2057.98828125 2428.11328125 C2062.3894518 2433.8634696 2066.72220925 2439.65753654 2071 2445.5 C2075.92552389 2452.22505881 2080.93348655 2458.88053224 2086 2465.5 C2091.65290465 2472.88559574 2097.21433838 2480.32967004 2102.70874023 2487.83374023 C2107.08782606 2493.79958611 2111.56077261 2499.68881759 2116.0625 2505.5625 C2121.52195656 2512.6889662 2126.84714321 2519.89191237 2132.06884766 2527.19384766 C2136.90970043 2533.93598658 2141.93963711 2540.52600271 2146.98828125 2547.11328125 C2151.3894518 2552.8634696 2155.72220925 2558.65753654 2160 2564.5 C2165.50462057 2572.01572785 2171.11171397 2579.44692241 2176.79296875 2586.83007812 C2177.39753906 2587.61833984 2178.00210938 2588.40660156 2178.625 2589.21875 C2179.28497419 2590.0213132 2179.94494839 2590.8238764 2180.6249218 2591.6507597 C2182.56815389 2594.18030931 2183.82400744 2596.73420399 2185.11715889 2599.64499378 C2188.07614586 2605.58177128 2191.34134174 2610.37381967 2197 2614 C2208.53404654 2617.45281638 2221.21163579 2616.45185301 2233.11845851 2616.20524681 C2238.11483185 2616.12277585 2243.11077248 2616.15099048 2248.1076355 2616.16539001 C2256.75295069 2616.17532746 2265.39553033 2616.1159966 2274.04015732 2616.00887108 C2286.53815568 2615.85409528 2299.03483861 2615.80493851 2311.53369142 2615.78109924 C2331.81406273 2615.7395703 2352.09297758 2615.61328066 2372.37255859 2615.43334961 C2392.06584411 2615.25880276 2411.75873328 2615.12438554 2431.45263672 2615.04370117 C2432.66765279 2615.03870943 2433.88266885 2615.03371768 2435.13450359 2615.02857467 C2441.23021329 2615.00377798 2447.32592579 2614.97976776 2453.42164016 2614.95614851 C2503.9487664 2614.75935287 2554.47431198 2614.42485686 2605 2614 C2603.60999823 2611.15542409 2602.12675757 2608.66316094 2600.234375 2606.12109375 C2599.68152832 2605.3748877 2599.12868164 2604.62868164 2598.55908203 2603.85986328 C2597.96208496 2603.0604834 2597.36508789 2602.26110352 2596.75 2601.4375 C2595.47121176 2599.71494946 2594.19256988 2597.99229026 2592.9140625 2596.26953125 C2592.26083008 2595.39119629 2591.60759766 2594.51286133 2590.93457031 2593.60791016 C2589.12252262 2591.16516742 2587.32046207 2588.71552648 2585.5234375 2586.26171875 C2578.76899407 2577.0418452 2571.9078417 2567.91252131 2564.96142578 2558.83642578 C2559.99335512 2552.33418614 2555.12420401 2545.76546576 2550.2890625 2539.1640625 C2545.92722968 2533.22328567 2541.47945452 2527.3524674 2537 2521.5 C2531.34709535 2514.11440426 2525.78566162 2506.67032996 2520.29125977 2499.16625977 C2515.91217394 2493.20041389 2511.43922739 2487.31118241 2506.9375 2481.4375 C2501.47804344 2474.3110338 2496.15285679 2467.10808763 2490.93115234 2459.80615234 C2486.09029957 2453.06401342 2481.06036289 2446.47399729 2476.01171875 2439.88671875 C2471.6105482 2434.1365304 2467.27779075 2428.34246346 2463 2422.5 C2458.07447611 2415.77494119 2453.06651345 2409.11946776 2448 2402.5 C2442.34709535 2395.11440426 2436.78566162 2387.67032996 2431.29125977 2380.16625977 C2426.91217394 2374.20041389 2422.43922739 2368.31118241 2417.9375 2362.4375 C2412.47804344 2355.3110338 2407.15285679 2348.10808763 2401.93115234 2340.80615234 C2397.09029957 2334.06401342 2392.06036289 2327.47399729 2387.01171875 2320.88671875 C2382.6105482 2315.1365304 2378.27779075 2309.34246346 2374 2303.5 C2369.07447611 2296.77494119 2364.06651345 2290.11946776 2359 2283.5 C2353.34709535 2276.11440426 2347.78566162 2268.67032996 2342.29125977 2261.16625977 C2337.91217394 2255.20041389 2333.43922739 2249.31118241 2328.9375 2243.4375 C2323.47804344 2236.3110338 2318.15285679 2229.10808763 2312.93115234 2221.80615234 C2308.09029957 2215.06401342 2303.06036289 2208.47399729 2298.01171875 2201.88671875 C2293.6105482 2196.1365304 2289.27779075 2190.34246346 2285 2184.5 C2280.07447611 2177.77494119 2275.06651345 2171.11946776 2270 2164.5 C2264.34709535 2157.11440426 2258.78566162 2149.67032996 2253.29125977 2142.16625977 C2248.91217394 2136.20041389 2244.43922739 2130.31118241 2239.9375 2124.4375 C2234.47804344 2117.3110338 2229.15285679 2110.10808763 2223.93115234 2102.80615234 C2219.09029957 2096.06401342 2214.06036289 2089.47399729 2209.01171875 2082.88671875 C2204.6105482 2077.1365304 2200.27779075 2071.34246346 2196 2065.5 C2191.07447611 2058.77494119 2186.06651345 2052.11946776 2181 2045.5 C2175.34709535 2038.11440426 2169.78566162 2030.67032996 2164.29125977 2023.16625977 C2159.91217394 2017.20041389 2155.43922739 2011.31118241 2150.9375 2005.4375 C2145.47804344 1998.3110338 2140.15285679 1991.10808763 2134.93115234 1983.80615234 C2130.09029957 1977.06401342 2125.06036289 1970.47399729 2120.01171875 1963.88671875 C2115.6105482 1958.1365304 2111.27779075 1952.34246346 2107 1946.5 C2102.07447611 1939.77494119 2097.06651345 1933.11946776 2092 1926.5 C2086.34709535 1919.11440426 2080.78566162 1911.67032996 2075.29125977 1904.16625977 C2070.91217394 1898.20041389 2066.43922739 1892.31118241 2061.9375 1886.4375 C2056.47804344 1879.3110338 2051.15285679 1872.10808763 2045.93115234 1864.80615234 C2041.09029957 1858.06401342 2036.06036289 1851.47399729 2031.01171875 1844.88671875 C2026.6105482 1839.1365304 2022.27779075 1833.34246346 2018 1827.5 C2013.07447611 1820.77494119 2008.06651345 1814.11946776 2003 1807.5 C1997.34709535 1800.11440426 1991.78566162 1792.67032996 1986.29125977 1785.16625977 C1981.91217394 1779.20041389 1977.43922739 1773.31118241 1972.9375 1767.4375 C1967.47804344 1760.3110338 1962.15285679 1753.10808763 1956.93115234 1745.80615234 C1952.09029957 1739.06401342 1947.06036289 1732.47399729 1942.01171875 1725.88671875 C1937.6105482 1720.1365304 1933.27779075 1714.34246346 1929 1708.5 C1924.07447611 1701.77494119 1919.06651345 1695.11946776 1914 1688.5 C1908.34709535 1681.11440426 1902.78566162 1673.67032996 1897.29125977 1666.16625977 C1892.91217394 1660.20041389 1888.43922739 1654.31118241 1883.9375 1648.4375 C1878.47804344 1641.3110338 1873.15285679 1634.10808763 1867.93115234 1626.80615234 C1863.09029957 1620.06401342 1858.06036289 1613.47399729 1853.01171875 1606.88671875 C1848.6105482 1601.1365304 1844.27779075 1595.34246346 1840 1589.5 C1835.07447611 1582.77494119 1830.06651345 1576.11946776 1825 1569.5 C1819.34709535 1562.11440426 1813.78566162 1554.67032996 1808.29125977 1547.16625977 C1803.91217394 1541.20041389 1799.43922739 1535.31118241 1794.9375 1529.4375 C1789.47804344 1522.3110338 1784.15285679 1515.10808763 1778.93115234 1507.80615234 C1774.09029957 1501.06401342 1769.06036289 1494.47399729 1764.01171875 1487.88671875 C1759.6105482 1482.1365304 1755.27779075 1476.34246346 1751 1470.5 C1746.07447611 1463.77494119 1741.06651345 1457.11946776 1736 1450.5 C1730.34709535 1443.11440426 1724.78566162 1435.67032996 1719.29125977 1428.16625977 C1714.91217394 1422.20041389 1710.43922739 1416.31118241 1705.9375 1410.4375 C1700.47804344 1403.3110338 1695.15285679 1396.10808763 1689.93115234 1388.80615234 C1685.09029957 1382.06401342 1680.06036289 1375.47399729 1675.01171875 1368.88671875 C1670.6105482 1363.1365304 1666.27779075 1357.34246346 1662 1351.5 C1657.07447611 1344.77494119 1652.06651345 1338.11946776 1647 1331.5 C1641.34709535 1324.11440426 1635.78566162 1316.67032996 1630.29125977 1309.16625977 C1625.91217394 1303.20041389 1621.43922739 1297.31118241 1616.9375 1291.4375 C1611.47804344 1284.3110338 1606.15285679 1277.10808763 1600.93115234 1269.80615234 C1596.09029957 1263.06401342 1591.06036289 1256.47399729 1586.01171875 1249.88671875 C1581.6105482 1244.1365304 1577.27779075 1238.34246346 1573 1232.5 C1568.07447611 1225.77494119 1563.06651345 1219.11946776 1558 1212.5 C1552.34709535 1205.11440426 1546.78566162 1197.67032996 1541.29125977 1190.16625977 C1536.91217394 1184.20041389 1532.43922739 1178.31118241 1527.9375 1172.4375 C1522.47804344 1165.3110338 1517.15285679 1158.10808763 1511.93115234 1150.80615234 C1507.09029957 1144.06401342 1502.06036289 1137.47399729 1497.01171875 1130.88671875 C1492.6105482 1125.1365304 1488.27779075 1119.34246346 1484 1113.5 C1479.07447611 1106.77494119 1474.06651345 1100.11946776 1469 1093.5 C1463.34932439 1086.11731654 1457.78976064 1078.67640427 1452.29785156 1071.17504883 C1447.85518898 1065.12220487 1443.31621363 1059.14752041 1438.75 1053.1875 C1434.00430122 1046.99122915 1429.34541901 1040.75935893 1424.85742188 1034.37451172 C1420.45680048 1028.15600595 1415.79652275 1022.13633213 1411.1640625 1016.08984375 C1406.71275775 1010.27147162 1402.3275176 1004.41092227 1398 998.5 C1393.07450846 991.77491782 1388.06651293 985.11946708 1383 978.5 C1377.34709535 971.11440426 1371.78566162 963.67032996 1366.29125977 956.16625977 C1361.91217394 950.20041389 1357.43922739 944.31118241 1352.9375 938.4375 C1347.47804344 931.3110338 1342.15285679 924.10808763 1336.93115234 916.80615234 C1332.09029957 910.06401342 1327.06036289 903.47399729 1322.01171875 896.88671875 C1317.6105482 891.1365304 1313.27779075 885.34246346 1309 879.5 C1304.07447611 872.77494119 1299.06651345 866.11946776 1294 859.5 C1288.34709535 852.11440426 1282.78566162 844.67032996 1277.29125977 837.16625977 C1272.91217394 831.20041389 1268.43922739 825.31118241 1263.9375 819.4375 C1258.47804344 812.3110338 1253.15285679 805.10808763 1247.93115234 797.80615234 C1243.09029957 791.06401342 1238.06036289 784.47399729 1233.01171875 777.88671875 C1228.6105482 772.1365304 1224.27779075 766.34246346 1220 760.5 C1215.07447611 753.77494119 1210.06651345 747.11946776 1205 740.5 C1199.34709535 733.11440426 1193.78566162 725.67032996 1188.29125977 718.16625977 C1183.91217394 712.20041389 1179.43922739 706.31118241 1174.9375 700.4375 C1169.47804344 693.3110338 1164.15285679 686.10808763 1158.93115234 678.80615234 C1154.09029957 672.06401342 1149.06036289 665.47399729 1144.01171875 658.88671875 C1139.6105482 653.1365304 1135.27779075 647.34246346 1131 641.5 C1126.07447611 634.77494119 1121.06651345 628.11946776 1116 621.5 C1110.34709535 614.11440426 1104.78566162 606.67032996 1099.29125977 599.16625977 C1094.91217394 593.20041389 1090.43922739 587.31118241 1085.9375 581.4375 C1080.47804344 574.3110338 1075.15285679 567.10808763 1069.93115234 559.80615234 C1065.09029957 553.06401342 1060.06036289 546.47399729 1055.01171875 539.88671875 C1050.6105482 534.1365304 1046.27779075 528.34246346 1042 522.5 C1037.07447611 515.77494119 1032.06651345 509.11946776 1027 502.5 C1021.34709535 495.11440426 1015.78566162 487.67032996 1010.29125977 480.16625977 C1005.91217394 474.20041389 1001.43922739 468.31118241 996.9375 462.4375 C991.47804344 455.3110338 986.15285679 448.10808763 980.93115234 440.80615234 C976.09029957 434.06401342 971.06036289 427.47399729 966.01171875 420.88671875 C961.6105482 415.1365304 957.27779075 409.34246346 953 403.5 C948.07447611 396.77494119 943.06651345 390.11946776 938 383.5 C932.34709535 376.11440426 926.78566162 368.67032996 921.29125977 361.16625977 C916.91217394 355.20041389 912.43922739 349.31118241 907.9375 343.4375 C902.47804344 336.3110338 897.15285679 329.10808763 891.93115234 321.80615234 C887.09029957 315.06401342 882.06036289 308.47399729 877.01171875 301.88671875 C872.6105482 296.1365304 868.27779075 290.34246346 864 284.5 C859.07447611 277.77494119 854.06651345 271.11946776 849 264.5 C843.34709535 257.11440426 837.78566162 249.67032996 832.29125977 242.16625977 C827.25850433 235.30988736 822.09554151 228.55733303 816.92138672 221.80737305 C811.81832297 215.12794082 806.85891828 208.35519045 801.98413086 201.50756836 C801.23788452 200.46161499 801.23788452 200.46161499 800.4765625 199.39453125 C800.04424316 198.78456299 799.61192383 198.17459473 799.16650391 197.54614258 C797.94434102 195.8519406 797.94434102 195.8519406 796 194 C792.99146319 193.69726454 792.99146319 193.69726454 789.38201714 193.75390434 C788.34527091 193.75044281 788.34527091 193.75044281 787.28758031 193.74691135 C784.94837008 193.74157543 782.60942967 193.75062492 780.27023315 193.75949097 C778.58558784 193.75861963 776.90094278 193.75686999 775.21629918 193.75431263 C770.5689414 193.74982091 765.92167506 193.75786771 761.27432895 193.76786876 C756.26954565 193.77647481 751.26476786 193.77358512 746.25997925 193.77206421 C737.58284144 193.77101355 728.90573362 193.77730902 720.22860336 193.78853989 C707.68280496 193.80476746 695.13702112 193.81000008 682.59121336 193.81251587 C662.23837229 193.81689729 641.88554722 193.83021849 621.53271484 193.84912109 C601.75732504 193.86746834 581.98193957 193.88163049 562.20654297 193.89013672 C560.98837422 193.89066217 559.77020547 193.89118761 558.51512252 193.89172898 C552.40416274 193.89433898 546.29320294 193.89686642 540.18224311 193.89935279 C489.45481768 193.9200992 438.72740962 193.95533687 388 194 Z " fill="#000000" transform="translate(7,0)"/>
</svg>
